<?xml version="1.0" standalone="no"?><!DOCTYPE svg PUBLIC "-//W3C//DTD SVG 1.1//EN" "http://www.w3.org/Graphics/SVG/1.1/DTD/svg11.dtd"><svg class="icon" width="200px" height="200.00px" viewBox="0 0 1024 1024" version="1.1" xmlns="http://www.w3.org/2000/svg"><path fill="#333333" d="M914.746667 544H352a32 32 0 1 1 0-64h562.746667l-137.376-137.370667a32 32 0 0 1 45.258666-45.258666l192 192a32 32 0 0 1 0 45.258666l-192 192a32 32 0 0 1-45.258666-45.258666L914.746667 544zM576 864a32 32 0 0 1 64 0v128a32 32 0 0 1-32 32H96a32 32 0 0 1-32-32V32a32 32 0 0 1 32-32h512a32 32 0 0 1 32 32v128a32 32 0 0 1-64 0V64H128v896h448v-96z"  fill-opacity=".7" /></svg>