<?xml version="1.0" standalone="no"?><!DOCTYPE svg PUBLIC "-//W3C//DTD SVG 1.1//EN" "http://www.w3.org/Graphics/SVG/1.1/DTD/svg11.dtd"><svg class="icon" width="32px" height="32.00px" viewBox="0 0 1024 1024" version="1.1" xmlns="http://www.w3.org/2000/svg"><path d="M672 184v48h48v-48h-48z" fill="#B8B8B8" /><path d="M960 248v640a64 64 0 0 1-64 64H128a64 64 0 0 1-64-64v-640a64 64 0 0 1 64-64h544v48H128a16 16 0 0 0-16 16v640a16 16 0 0 0 16 16h768a16 16 0 0 0 16-16v-640a16 16 0 0 0-16-16H720v-48h176a64 64 0 0 1 64 64zM352 80v104h-48V80a24 24 0 0 1 48 0z"  /><path d="M304 232h48V288a24 24 0 0 1-48 0z m632 160h-832a24 24 0 0 0 0 48h832a24 24 0 0 0 0-48zM720 80v208a24 24 0 0 1-48 0V80a24 24 0 0 1 48 0z"  /><path d="M339.2 776l64-80h-128l64 80z" fill="#0070FF" /><path d="M605.6 510.56l7.2 4.16-23.68 23.68a66.56 66.56 0 0 0-7.52-3.84A160 160 0 0 0 355.2 680a88.64 88.64 0 0 0 0.96 16h-32a133.92 133.92 0 0 1-0.8-16 192 192 0 0 1 282.24-169.44zM684.8 568l-64 80h128l-64-80z" fill="#0070FF" /><path d="M418.4 833.44l-7.2-4.16 23.68-23.68a66.56 66.56 0 0 0 7.52 3.84A160 160 0 0 0 668.8 664a88.64 88.64 0 0 0-0.96-16h32a133.44 133.44 0 0 1 0 16 192 192 0 0 1-281.44 169.44z" fill="#0070FF" /></svg>