<?xml version="1.0" standalone="no"?><!DOCTYPE svg PUBLIC "-//W3C//DTD SVG 1.1//EN" "http://www.w3.org/Graphics/SVG/1.1/DTD/svg11.dtd"><svg class="icon" width="200px" height="200.00px" viewBox="0 0 1024 1024" version="1.1" xmlns="http://www.w3.org/2000/svg"><path fill="#333333" d="M624.08467373 205.79699287a20.30075156 20.30075156 0 0 1 16.91729297 33.83458594l-186.09022529 253.75939892 186.09022529 253.75939805a20.30075156 20.30075156 0 1 1-33.83458681 23.68421104L412.6185081 501.84962422a20.30075156 20.30075156 0 0 1 0-23.68421104L607.16737988 214.25563935a20.30075156 20.30075156 0 0 1 16.91729385-8.45864648z"  /><path fill="#333333" d="M429.53580107 473.09022529h500.75187979a20.30075156 20.30075156 0 1 1 0 38.90977471H429.53580107a20.30075156 20.30075156 0 1 1 0-38.90977471z"  /><path fill="#333333" d="M89.49820713 962A20.30075156 20.30075156 0 0 1 69.19745557 941.69924844V82.30075156a20.30075156 20.30075156 0 0 1 40.60150312 0V941.69924844a20.30075156 20.30075156 0 0 1-20.30075156 20.30075156z"  /><path fill="#333333" d="M629.15986162 962h-541.35338379a20.30075156 20.30075156 0 0 1 0-40.60150401h541.35338379a20.30075156 20.30075156 0 1 1 0 40.60150401z"  /><path fill="#333333" d="M629.15986162 102.60150401h-541.35338379a20.30075156 20.30075156 0 1 1 0-40.60150401h541.35338379a20.30075156 20.30075156 0 1 1 0 40.60150401z"  /></svg>