<?xml version="1.0" standalone="no"?><!DOCTYPE svg PUBLIC "-//W3C//DTD SVG 1.1//EN" "http://www.w3.org/Graphics/SVG/1.1/DTD/svg11.dtd"><svg class="icon" width="25px" height="25.00px" viewBox="0 0 1024 1024" version="1.1" xmlns="http://www.w3.org/2000/svg"><path fill="#ffffff" d="M900.36 163.52H131.91c-13.25 0-24-10.75-24-24s10.75-24 24-24h768.44c13.25 0 24 10.75 24 24s-10.74 24-23.99 24zM900.36 544.4H469.75c-13.25 0-24-10.75-24-24s10.75-24 24-24h430.61c13.25 0 24 10.75 24 24s-10.75 24-24 24zM900.36 353.96H431.64c-13.25 0-24-10.75-24-24s10.75-24 24-24h468.72c13.25 0 24 10.75 24 24s-10.75 24-24 24zM900.36 734.84H561.47c-13.25 0-24-10.75-24-24s10.75-24 24-24h338.89c13.25 0 24 10.75 24 24s-10.75 24-24 24zM900.36 925.28H609.88c-13.25 0-24-10.75-24-24s10.75-24 24-24h290.48c13.25 0 24 10.75 24 24s-10.75 24-24 24zM278.15 924.42c-6.14 0-12.28-2.34-16.97-7.03L107 763.21c-9.37-9.37-9.37-24.57 0-33.94 9.37-9.37 24.57-9.37 33.94 0l137.2 137.2L410.8 733.83c9.37-9.37 24.57-9.37 33.94 0 9.37 9.37 9.37 24.57 0 33.94L295.12 917.39a23.96 23.96 0 0 1-16.97 7.03zM278.15 924.42c-13.25 0-24-10.75-24-24V287.34c0-13.25 10.75-24 24-24s24 10.75 24 24v613.08c0 13.25-10.75 24-24 24z" /></svg>