<?xml version="1.0" standalone="no"?><!DOCTYPE svg PUBLIC "-//W3C//DTD SVG 1.1//EN" "http://www.w3.org/Graphics/SVG/1.1/DTD/svg11.dtd"><svg class="icon" width="25px" height="25.00px" viewBox="0 0 1024 1024" version="1.1" xmlns="http://www.w3.org/2000/svg"><path fill="#ffffff" d="M960 525.098V114c0-18.778-15.222-34-34-34H34C15.222 80 0 95.222 0 114v644c0 18.778 15.222 34 34 34h533.263A258.142 258.142 0 0 1 562 740H52V132h856v366.828a256.11 256.11 0 0 1 52 26.27z"  /><path fill="#ffffff" d="M0 250h960v102H0zM390.733 630.613c41.666 19.814 54.506 18.097 54.456 54.145 0.05 3.973 0.05 5.518 0.074 6.327H150.104s-0.172 4.463-0.074-6.327c-0.073-36.048 12.79-34.331 54.433-54.145 14.192-6.768 59.056-26.632 59.056-26.632s2.263-10.127 0-17.754c-10.577-6.106-21.399-33.203-22.727-44.386-9.839-4.438-12.766-23.271-13.627-26.631-0.811-3.114 0.886-12.139 7.478-12.654a58.71 58.71 0 0 1-2.952-18.416c0-1.496 0.123-2.967 0.246-4.439-0.098-1.47-0.246-2.942-0.246-4.438 0-34.307 29.491-53.263 65.87-53.263 36.378 0 65.87 18.931 65.87 53.263 0 1.496-0.124 2.967-0.247 4.438 0.099 1.472 0.246 2.943 0.246 4.439a58.71 58.71 0 0 1-2.951 18.416c6.616 0.515 8.289 9.54 7.477 12.654-0.86 3.36-3.788 22.193-13.626 26.631-1.329 11.183-12.127 38.28-22.728 44.386-2.804 8.313 0 17.754 0 17.754s44.938 19.864 59.13 26.632zM830 740V632h-52v160h162v-52H830z m-11 205c-113.218 0-205-91.782-205-205s91.782-205 205-205 205 91.782 205 205-91.782 205-205 205z"  /></svg>