<?xml version="1.0" standalone="no"?><!DOCTYPE svg PUBLIC "-//W3C//DTD SVG 1.1//EN" "http://www.w3.org/Graphics/SVG/1.1/DTD/svg11.dtd"><svg class="icon" width="32px" height="32.00px" viewBox="0 0 1024 1024" version="1.1" xmlns="http://www.w3.org/2000/svg"><path d="M310.30303 853.333333H186.181818c-24.824242 0-46.545455-21.721212-46.545454-46.545454V186.181818c0-24.824242 21.721212-46.545455 46.545454-46.545454h124.121212c24.824242 0 46.545455 21.721212 46.545455 46.545454v620.606061c0 24.824242-21.721212 46.545455-46.545455 46.545454z m-124.121212-682.666666c-9.309091 0-15.515152 6.206061-15.515151 15.515151v620.606061c0 9.309091 6.206061 15.515152 15.515151 15.515151h124.121212c9.309091 0 15.515152-6.206061 15.515152-15.515151V186.181818c0-9.309091-6.206061-15.515152-15.515152-15.515151H186.181818z" fill="#222222" /><path d="M294.787879 310.30303h-62.060606c-9.309091 0-15.515152 6.206061-15.515152 15.515152s6.206061 15.515152 15.515152 15.515151h62.060606c9.309091 0 15.515152-6.206061 15.515151-15.515151s-6.206061-15.515152-15.515151-15.515152zM294.787879 403.393939h-62.060606c-9.309091 0-15.515152 6.206061-15.515152 15.515152s6.206061 15.515152 15.515152 15.515151h62.060606c9.309091 0 15.515152-6.206061 15.515151-15.515151s-6.206061-15.515152-15.515151-15.515152zM294.787879 496.484848h-62.060606c-9.309091 0-15.515152 6.206061-15.515152 15.515152s6.206061 15.515152 15.515152 15.515152h62.060606c9.309091 0 15.515152-6.206061 15.515151-15.515152s-6.206061-15.515152-15.515151-15.515152zM543.030303 310.30303h-62.060606c-9.309091 0-15.515152 6.206061-15.515152 15.515152s6.206061 15.515152 15.515152 15.515151h62.060606c9.309091 0 15.515152-6.206061 15.515152-15.515151s-6.206061-15.515152-15.515152-15.515152zM543.030303 403.393939h-62.060606c-9.309091 0-15.515152 6.206061-15.515152 15.515152s6.206061 15.515152 15.515152 15.515151h62.060606c9.309091 0 15.515152-6.206061 15.515152-15.515151s-6.206061-15.515152-15.515152-15.515152zM791.272727 310.30303h-62.060606c-9.309091 0-15.515152 6.206061-15.515151 15.515152s6.206061 15.515152 15.515151 15.515151h62.060606c9.309091 0 15.515152-6.206061 15.515152-15.515151s-6.206061-15.515152-15.515152-15.515152zM791.272727 403.393939h-62.060606c-9.309091 0-15.515152 6.206061-15.515151 15.515152s6.206061 15.515152 15.515151 15.515151h62.060606c9.309091 0 15.515152-6.206061 15.515152-15.515151s-6.206061-15.515152-15.515152-15.515152z" fill="#222222" /><path d="M853.333333 493.381818V186.181818c0-24.824242-21.721212-46.545455-46.545454-46.545454h-124.121212c-24.824242 0-46.545455 21.721212-46.545455 46.545454v238.933334c-9.309091 3.10303-21.721212 6.206061-31.030303 9.30909V186.181818c0-24.824242-21.721212-46.545455-46.545454-46.545454h-124.121213c-24.824242 0-46.545455 21.721212-46.545454 46.545454v620.606061c0 24.824242 21.721212 46.545455 46.545454 46.545454h130.327273c34.133333 18.618182 74.472727 31.030303 117.915152 31.030303s80.678788-12.412121 114.812121-31.030303c21.721212-12.412121 40.339394-27.927273 55.854545-43.442424 37.236364-40.339394 62.060606-96.193939 62.060606-158.254545 0-62.060606-24.824242-114.812121-62.060606-158.254546z m-186.181818-307.2c0-9.309091 6.206061-15.515152 15.515152-15.515151h124.121212c9.309091 0 15.515152 6.206061 15.515151 15.515151v279.272727c-40.339394-27.927273-86.884848-46.545455-139.636363-46.545454h-15.515152V186.181818zM434.424242 822.30303c-9.309091 0-15.515152-6.206061-15.515151-15.515151V186.181818c0-9.309091 6.206061-15.515152 15.515151-15.515151h124.121213c9.309091 0 15.515152 6.206061 15.515151 15.515151v260.654546c-24.824242 12.412121-46.545455 31.030303-65.163636 49.648484-9.309091 9.309091-15.515152 18.618182-24.824243 31.030304-21.721212 37.236364-37.236364 77.575758-37.236363 124.121212 0 68.266667 27.927273 127.224242 74.472727 170.666666H434.424242z m387.878788-24.824242c-9.309091 9.309091-21.721212 18.618182-34.133333 24.824242-31.030303 18.618182-68.266667 31.030303-105.50303 31.030303-31.030303 0-58.957576-6.206061-86.884849-18.618181-9.309091-3.10303-18.618182-9.309091-27.927273-15.515152-52.751515-37.236364-86.884848-96.193939-86.884848-167.563636 0-46.545455 15.515152-89.987879 43.442424-124.121212 9.309091-9.309091 15.515152-18.618182 27.927273-27.927273 6.206061-6.206061 15.515152-12.412121 21.721212-18.618182 9.309091-6.206061 18.618182-12.412121 31.030303-15.515152 9.309091-3.10303 21.721212-6.206061 31.030303-9.30909 9.309091-3.10303 21.721212-3.10303 31.030303-6.206061h15.515152c52.751515 0 102.4 21.721212 139.636363 55.854545 12.412121 12.412121 21.721212 24.824242 31.030303 37.236364 18.618182 31.030303 31.030303 68.266667 31.030303 105.50303s-12.412121 74.472727-31.030303 105.503031c-9.309091 18.618182-18.618182 31.030303-31.030303 43.442424z" fill="#222222" /><path d="M543.030303 670.254545h229.624242l-40.339393 40.339394c-6.206061 6.206061-6.206061 15.515152 0 21.721213 6.206061 6.206061 15.515152 6.206061 21.721212 0l55.854545-55.854546 21.721212-21.721212-21.721212-21.721212-55.854545-55.854546c-6.206061-6.206061-15.515152-6.206061-21.721212 0-6.206061 6.206061-6.206061 15.515152 0 21.721212l37.236363 37.236364h-226.521212c-9.309091 0-15.515152 6.206061-15.515151 15.515152 0 12.412121 6.206061 18.618182 15.515151 18.618181z" fill="#FF800E" /></svg>