<?xml version="1.0" standalone="no"?><!DOCTYPE svg PUBLIC "-//W3C//DTD SVG 1.1//EN" "http://www.w3.org/Graphics/SVG/1.1/DTD/svg11.dtd"><svg class="icon" width="25px" height="25.00px" viewBox="0 0 1024 1024" version="1.1" xmlns="http://www.w3.org/2000/svg"><path d="M395.2 480H212.8C166.4 480 128 441.6 128 395.2V212.8C128 166.4 166.4 128 212.8 128h184c46.4 0 84.8 38.4 84.8 84.8v184c-1.6 44.8-40 83.2-86.4 83.2zM212.8 192c-11.2 0-20.8 9.6-20.8 20.8v184c0 11.2 9.6 20.8 20.8 20.8h184c11.2 0 20.8-9.6 20.8-20.8V212.8c0-11.2-9.6-20.8-20.8-20.8H212.8z" fill="#0078E5" /><path d="M908.8 364.8l-129.6 129.6c-33.6 33.6-86.4 33.6-120 0l-129.6-129.6c-33.6-33.6-33.6-86.4 0-120l129.6-129.6c33.6-33.6 86.4-33.6 120 0l129.6 129.6c33.6 32 33.6 86.4 0 120zM576 289.6c-8 8-8 20.8 0 28.8l129.6 129.6c8 8 20.8 8 28.8 0l129.6-129.6c8-8 8-20.8 0-28.8L736 160c-8-8-20.8-8-28.8 0L576 289.6z" fill="#17FFFF" /><path d="M395.2 896H212.8C166.4 896 128 857.6 128 811.2V628.8c0-46.4 38.4-84.8 84.8-84.8h184c46.4 0 84.8 38.4 84.8 84.8v184c-1.6 44.8-40 83.2-86.4 83.2zM212.8 608c-11.2 0-20.8 9.6-20.8 20.8v184c0 11.2 9.6 20.8 20.8 20.8h184c11.2 0 20.8-9.6 20.8-20.8V628.8c0-11.2-9.6-20.8-20.8-20.8H212.8zM811.2 896H628.8c-46.4 0-84.8-38.4-84.8-84.8V628.8c0-46.4 38.4-84.8 84.8-84.8h184c46.4 0 84.8 38.4 84.8 84.8V704c0 17.6-14.4 32-32 32s-32-14.4-32-32v-75.2c0-11.2-9.6-20.8-20.8-20.8H628.8c-11.2 0-20.8 9.6-20.8 20.8v184c0 11.2 9.6 20.8 20.8 20.8h184c11.2 0 20.8-9.6 20.8-20.8 0-17.6 14.4-32 32-32s32 14.4 32 32c-1.6 44.8-40 83.2-86.4 83.2z" fill="#0078E5" /></svg>