<?xml version="1.0" standalone="no"?><!DOCTYPE svg PUBLIC "-//W3C//DTD SVG 1.1//EN" "http://www.w3.org/Graphics/SVG/1.1/DTD/svg11.dtd"><svg class="icon" width="25px" height="25.00px" viewBox="0 0 1024 1024" version="1.1" xmlns="http://www.w3.org/2000/svg"><path fill="#ffffff" d="M896.682667 195.242667v622.250666H131.072V195.242667h765.610667m4.778666-47.786667H126.293333c-23.893333 0-43.008 19.456-43.008 43.008v631.466667c0 23.552 19.114667 43.008 43.008 43.008h775.168c23.893333 0 43.008-19.456 43.008-43.008v-631.466667c0-23.552-19.114667-43.008-43.008-43.008zM549.546667 312.32v24.917333l-52.224 104.106667 99.669333 162.474667-61.781333 66.56v29.013333h227.669333V312.32H549.546667zM482.986667 337.237333v-24.917333H264.874667V699.733333H464.213333v-29.013333l66.56-66.56-99.669333-162.474667 51.882667-104.448z" /></svg>