<?xml version="1.0" standalone="no"?><!DOCTYPE svg PUBLIC "-//W3C//DTD SVG 1.1//EN" "http://www.w3.org/Graphics/SVG/1.1/DTD/svg11.dtd"><svg t="1616913996123" class="icon" viewBox="0 0 1024 1024" version="1.1" xmlns="http://www.w3.org/2000/svg" p-id="2987" xmlns:xlink="http://www.w3.org/1999/xlink" width="32" height="32"><defs><style type="text/css"></style></defs><path d="M628.297143 516.388571l23.113143-23.04a27.574857 27.574857 0 0 1 38.985143 38.985143l-14.921143 14.921143a20.260571 20.260571 0 0 0-12.434286 12.434286L546.377143 676.352a27.794286 27.794286 0 0 1-38.985143-0.146286l-59.392-59.392a27.574857 27.574857 0 0 1 38.985143-38.985143l39.936 39.936 89.234286-89.234285a20.187429 20.187429 0 0 0 12.141714-12.141715z m-7.899429 18.285715a27.648 27.648 0 0 1-22.966857-0.292572 179.638857 179.638857 0 0 0-77.750857-17.334857c-83.163429 0-154.331429 55.222857-175.542857 133.851429h83.894857c15.213714 0 27.574857 12.361143 27.574857 27.574857 0 15.140571-12.434286 27.501714-27.574857 27.501714H311.369143a27.794286 27.794286 0 0 1-27.501714-30.208 235.52 235.52 0 0 1 147.529142-196.900571 121.417143 121.417143 0 0 1-33.645714-83.894857c0-67.291429 54.710857-122.002286 122.002286-122.002286 67.218286 0 122.002286 54.784 122.002286 122.002286 0 31.670857-12.288 61.44-33.645715 83.894857 4.315429 1.682286 8.630857 3.657143 13.092572 5.632a27.574857 27.574857 0 0 1 13.385143 35.986285l-14.189715 14.262858z m50.980572 6.290285a27.648 27.648 0 0 1 32.182857 7.972572c29.622857 36.278857 47.616 80.091429 52.150857 126.537143a27.428571 27.428571 0 0 1-27.501714 30.500571H611.620571a27.648 27.648 0 1 1 0-55.296h83.602286a180.736 180.736 0 0 0-34.450286-66.852571 27.648 27.648 0 0 1-4.022857-28.233143l14.628572-14.628572zM519.826286 461.750857c36.790857 0 66.852571-30.061714 66.852571-66.852571a66.998857 66.998857 0 0 0-66.852571-66.852572 66.998857 66.998857 0 0 0-66.852572 66.852572c0 36.790857 29.988571 66.852571 66.852572 66.852571zM519.314286 109.714286a409.6 409.6 0 1 1-0.073143 819.273143A409.6 409.6 0 0 1 519.314286 109.714286z m0 58.953143a350.646857 350.646857 0 1 0 0.073143 701.44 350.646857 350.646857 0 0 0-0.073143-701.44z" p-id="2988"></path></svg>