<?xml version="1.0" standalone="no"?><!DOCTYPE svg PUBLIC "-//W3C//DTD SVG 1.1//EN" "http://www.w3.org/Graphics/SVG/1.1/DTD/svg11.dtd"><svg class="icon" width="25px" height="25.00px" viewBox="0 0 1024 1024" version="1.1" xmlns="http://www.w3.org/2000/svg"><path fill="#ffffff" d="M468.61 729.46a71.57 71.57 0 0 1-57.5-29.46L287.66 576.53A40 40 0 0 1 344.23 520l125 125 212.33-212.37a40 40 0 1 1 56.57 56.57L518.88 708.45a70.74 70.74 0 0 1-50.27 21.01zM358.06 294.05a40 40 0 0 1-40-40V130.18a40 40 0 0 1 80 0v123.87a40 40 0 0 1-40 40zM667.73 294.05a40 40 0 0 1-40-40V130.18a40 40 0 0 1 80 0v123.87a40 40 0 0 1-40 40zM439.61 183.09h146.57v80H439.61zM760.63 944.37H265.15c-107.43 0-194.83-87.37-194.83-194.84V316a194.83 194.83 0 0 1 194.83-194.85v80A114.84 114.84 0 0 0 150.32 316v433.53a115 115 0 0 0 114.83 114.84h495.48a115 115 0 0 0 114.84-114.84V316a115 115 0 0 0-114.84-114.85v-80c107.44 0 194.84 87.4 194.84 194.84v433.54c0 107.47-87.4 194.84-194.84 194.84z" /></svg>